<svg id="Layer_1" data-name="Layer 1" xmlns="http://www.w3.org/2000/svg" viewBox="0 0 1050.8 375.29"><defs><style>.cls-1{fill:none;stroke:#231f20;stroke-dasharray:2;}.cls-1,.cls-5,.cls-9{stroke-miterlimit:10;}.cls-2{fill:#fbe800;}.cls-3{fill:#727373;}.cls-4{fill:#939393;}.cls-5{fill:#209e4c;stroke:#209e4c;}.cls-6{fill:#1f9e49;}.cls-7{fill:#196d38;}.cls-8{fill:#85ca97;}.cls-9{fill:#b5b5b5;stroke:#fff;stroke-width:0.5px;}</style></defs><title>urbanmechanic</title><polyline class="cls-1" points="670.11 304.74 924.58 304.74 924.58 239.7"/><ellipse class="cls-2" cx="923.73" cy="147.09" rx="47.01" ry="67.45"/><rect class="cls-3" x="899.15" y="235.74" width="47.5" height="12.52" rx="2.73" ry="2.73"/><rect class="cls-4" x="899.56" y="223.31" width="47.5" height="12.52" rx="2.73" ry="2.73"/><rect class="cls-3" x="899.81" y="210.75" width="47.5" height="12.52" rx="2.73" ry="2.73"/><ellipse class="cls-5" cx="662.16" cy="301.97" rx="9.9" ry="28.03"/><polygon class="cls-6" points="58.2 272.94 159.72 272.94 328.69 272.94 662.3 272.94 662.3 330.87 58.2 330.87 58.2 272.94"/><path class="cls-7" d="M530,273.22c27.69-.62-27.65,43.93-61.75,43.93s-86-43.38-61.75-43.93C449.93,272.23,505.71,273.76,530,273.22Z"/><path class="cls-7" d="M308.88,272.76c27.69-.62-27.65,43.93-61.75,43.93s-86-43.38-61.75-43.93C228.83,271.76,284.62,273.3,308.88,272.76Z"/><ellipse class="cls-8" cx="57.76" cy="301.92" rx="9.9" ry="28.98"/><rect class="cls-9" x="485.19" y="259.2" width="18.16" height="65.47" rx="3.75" ry="3.75" transform="translate(988.55 583.87) rotate(-180)"/><rect class="cls-9" x="467.02" y="258.4" width="18.16" height="65.47" rx="3.75" ry="3.75" transform="translate(952.21 582.26) rotate(-180)"/><rect class="cls-9" x="449.29" y="258.52" width="18.16" height="65.47" rx="3.75" ry="3.75" transform="translate(916.74 582.52) rotate(180)"/><rect class="cls-9" x="431.04" y="258.46" width="18.16" height="65.47" rx="3.75" ry="3.75" transform="translate(880.24 582.38) rotate(-180)"/><rect class="cls-9" x="397.31" y="290.24" width="18.16" height="49.87" rx="3.75" ry="3.75" transform="translate(915.92 384.94) rotate(150)"/><rect class="cls-9" x="210.32" y="259.2" width="18.16" height="65.47" rx="3.75" ry="3.75"/><rect class="cls-9" x="228.48" y="258.39" width="18.16" height="65.47" rx="3.75" ry="3.75"/><rect class="cls-9" x="246.22" y="258.52" width="18.16" height="65.47" rx="3.75" ry="3.75"/><rect class="cls-9" x="264.47" y="258.45" width="18.16" height="65.47" rx="3.75" ry="3.75"/><rect class="cls-9" x="298.2" y="290.24" width="18.16" height="49.87" rx="3.75" ry="3.75" transform="translate(198.75 -111.42) rotate(30)"/></svg>