<svg id="Layer_1" data-name="Layer 1" xmlns="http://www.w3.org/2000/svg" viewBox="0 0 337.76 313.63"><defs><style>.cls-1{fill:#231f20;}.cls-2,.cls-5{fill:#fff;}.cls-3{fill:none;stroke:#231f20;}.cls-3,.cls-5,.cls-6{stroke-miterlimit:10;}.cls-4{fill:#1f9e49;}.cls-5,.cls-6{stroke:#209e4c;}.cls-6{fill:#209e4c;}</style></defs><title>urbanmechanic</title><rect class="cls-1" x="185.89" y="75.04" width="81.25" height="99.31" rx="12" ry="12"/><rect class="cls-2" x="191.9" y="91.51" width="32.05" height="32.05"/><rect class="cls-2" x="229.19" y="91.51" width="32.05" height="32.05"/><rect class="cls-2" x="205.7" y="82.5" width="42.91" height="4.64" rx="0.96" ry="0.96"/><circle class="cls-2" cx="200.71" cy="151.79" r="6.13"/><circle class="cls-2" cx="252.24" cy="151.79" r="6.13"/><rect class="cls-1" x="189.14" y="154.77" width="4.02" height="95.93" transform="translate(85.69 -55.18) rotate(21.08)"/><rect class="cls-1" x="260.22" y="154.77" width="4.02" height="95.93" transform="translate(579.82 297.6) rotate(158.92)"/><polygon class="cls-1" points="197.47 189.37 256.23 189.37 261.5 201.02 191.92 201.02 197.47 189.37"/><polygon class="cls-1" points="187.21 216.82 267.32 216.82 273.97 232.89 179.45 232.89 187.21 216.82"/><path class="cls-3" d="M69.65,94.28c-2.24-19.42,7.08-37.45,22.81-44.54,14.35-6.46,31.65-2.73,44,9.51"/><line class="cls-3" x1="69.65" y1="250.99" x2="69.65" y2="94.28"/><rect class="cls-4" x="69.47" y="107.22" width="76.26" height="7.31"/><ellipse class="cls-5" cx="69.63" cy="110.86" rx="1.25" ry="3.54"/><ellipse class="cls-6" cx="145.72" cy="110.89" rx="1.25" ry="3.54"/></svg>