<svg id="Layer_1" data-name="Layer 1" xmlns="http://www.w3.org/2000/svg" viewBox="0 0 960.62 824.45"><defs><style>.cls-1{fill:#707071;}.cls-2{fill:#1f9e49;}.cls-3{fill:#196d38;}.cls-4{fill:none;stroke:#231f20;stroke-miterlimit:10;stroke-dasharray:2;}.cls-5{fill:#fbe800;}.cls-6{fill:#727373;}.cls-7{fill:#939393;}</style></defs><title>urbanmechanic</title><rect class="cls-1" x="765.46" y="418.59" width="16.71" height="288.94"/><rect class="cls-1" x="185.59" y="418.6" width="16.71" height="288.94"/><rect class="cls-2" x="123.01" y="372.73" width="720.58" height="45.88"/><rect class="cls-2" x="123.01" y="435.03" width="720.58" height="45.88"/><rect class="cls-2" x="123.01" y="497.23" width="720.58" height="45.88"/><polygon class="cls-2" points="122.78 556.26 50.19 631.08 919.77 631.08 844.79 556.1 122.78 556.26"/><polygon class="cls-3" points="177.58 561.91 115.97 625.41 854 625.41 790.36 561.77 177.58 561.91"/><rect class="cls-2" x="136.59" y="558.82" width="701.45" height="10.28"/><rect class="cls-2" x="115.23" y="618.79" width="741.85" height="10.21"/><rect class="cls-1" x="121.4" y="631.27" width="16.71" height="114.78"/><rect class="cls-1" x="834.26" y="631.33" width="16.71" height="114.78"/><line class="cls-4" x1="772.13" y1="374.32" x2="772.13" y2="237.68"/><ellipse class="cls-5" cx="773.94" cy="145.69" rx="45.56" ry="65.37"/><rect class="cls-6" x="750.12" y="231.61" width="46.04" height="12.14" rx="2.73" ry="2.73"/><rect class="cls-7" x="750.53" y="219.57" width="46.04" height="12.14" rx="2.73" ry="2.73"/><rect class="cls-6" x="750.76" y="207.4" width="46.04" height="12.14" rx="2.73" ry="2.73"/></svg>