<svg id="Layer_1" data-name="Layer 1" xmlns="http://www.w3.org/2000/svg" viewBox="0 0 965.69 422.44"><defs><style>.cls-1{font-size:33.97px;font-family:MyriadPro-Regular, Myriad Pro;}.cls-1,.cls-5{fill:#231f20;}.cls-2{letter-spacing:0em;}.cls-3{letter-spacing:0em;}.cls-13,.cls-4{fill:none;stroke:#231f20;}.cls-13,.cls-17,.cls-21,.cls-4{stroke-miterlimit:10;}.cls-4{stroke-width:4px;}.cls-6{letter-spacing:0em;}.cls-7{letter-spacing:0em;}.cls-8{letter-spacing:-0.01em;}.cls-9{letter-spacing:0em;}.cls-10{letter-spacing:0.01em;}.cls-11{letter-spacing:0em;}.cls-12{letter-spacing:0.01em;}.cls-13{stroke-dasharray:2;}.cls-14{fill:#fbe800;}.cls-15{fill:#727373;}.cls-16{fill:#939393;}.cls-17{fill:#209e4c;stroke:#209e4c;}.cls-18{fill:#1f9e49;}.cls-19{fill:#196d38;}.cls-20{fill:#85ca97;}.cls-21{fill:#b5b5b5;stroke:#fff;stroke-width:0.5px;}</style></defs><title>urbanmechanic</title><text class="cls-1" transform="translate(318.54 100.82)">apply body he<tspan class="cls-2" x="202.47" y="0">a</tspan><tspan class="cls-3" x="218.71" y="0">t</tspan></text><path class="cls-4" d="M239.84,155.42c-4.81-21.61,1.21-42.71,15.57-54.14,15.22-12.13,33.49-8.36,37.18-7.52"/><polygon class="cls-5" points="246.3 154.07 238.59 153.25 230.89 152.42 234.75 160.06 238.62 167.71 242.46 160.89 246.3 154.07"/><text class="cls-1" transform="translate(696.67 350.52)">gene<tspan class="cls-6" x="71.88" y="0">r</tspan><tspan class="cls-7" x="82.82" y="0">a</tspan><tspan class="cls-8" x="99.06" y="0">t</tspan><tspan class="cls-9" x="110.1" y="0">e</tspan><tspan x="0" y="40.77">ele</tspan><tspan class="cls-10" x="42.06" y="40.77">c</tspan><tspan x="57.72" y="40.77">t</tspan><tspan class="cls-11" x="68.96" y="40.77">r</tspan><tspan x="80.21" y="40.77">ici</tspan><tspan class="cls-12" x="111.33" y="40.77">t</tspan><tspan x="122.88" y="40.77">y</tspan></text><path class="cls-4" d="M896.95,272.21c5.65,21.41.47,42.72-13.43,54.71-14.73,12.72-33.14,9.67-36.86,9"/><polygon class="cls-5" points="890.54 273.81 898.28 274.33 906.01 274.85 901.85 267.37 897.68 259.88 894.11 266.85 890.54 273.81"/><polyline class="cls-13" points="642 250.1 896.47 250.1 896.47 185.07"/><ellipse class="cls-14" cx="895.62" cy="92.46" rx="47.01" ry="67.45"/><rect class="cls-15" x="871.04" y="181.1" width="47.5" height="12.52" rx="2.73" ry="2.73"/><rect class="cls-16" x="871.45" y="168.68" width="47.5" height="12.52" rx="2.73" ry="2.73"/><rect class="cls-15" x="871.7" y="156.12" width="47.5" height="12.52" rx="2.73" ry="2.73"/><ellipse class="cls-17" cx="634.05" cy="247.34" rx="9.9" ry="28.03"/><polygon class="cls-18" points="30.09 218.31 131.61 218.31 300.58 218.31 634.19 218.31 634.19 276.23 30.09 276.23 30.09 218.31"/><path class="cls-19" d="M501.86,218.59c27.69-.62-27.65,43.93-61.75,43.93s-86-43.38-61.75-43.93C421.82,217.6,477.61,219.13,501.86,218.59Z"/><path class="cls-19" d="M280.77,218.12c27.69-.62-27.65,43.93-61.75,43.93s-86-43.38-61.75-43.93C200.72,217.13,256.51,218.67,280.77,218.12Z"/><ellipse class="cls-20" cx="29.65" cy="247.28" rx="9.9" ry="28.98"/><rect class="cls-21" x="457.08" y="204.57" width="18.16" height="65.47" rx="3.75" ry="3.75" transform="translate(932.33 474.6) rotate(-180)"/><rect class="cls-21" x="438.91" y="203.76" width="18.16" height="65.47" rx="3.75" ry="3.75" transform="translate(895.99 472.99) rotate(-180)"/><rect class="cls-21" x="421.18" y="203.89" width="18.16" height="65.47" rx="3.75" ry="3.75" transform="translate(860.52 473.25) rotate(180)"/><rect class="cls-21" x="402.93" y="203.82" width="18.16" height="65.47" rx="3.75" ry="3.75" transform="translate(824.02 473.11) rotate(-180)"/><rect class="cls-21" x="369.2" y="235.61" width="18.16" height="49.87" rx="3.75" ry="3.75" transform="translate(836.15 297.04) rotate(150)"/><rect class="cls-21" x="182.21" y="204.56" width="18.16" height="65.47" rx="3.75" ry="3.75"/><rect class="cls-21" x="200.37" y="203.76" width="18.16" height="65.47" rx="3.75" ry="3.75"/><rect class="cls-21" x="218.11" y="203.89" width="18.16" height="65.47" rx="3.75" ry="3.75"/><rect class="cls-21" x="236.36" y="203.82" width="18.16" height="65.47" rx="3.75" ry="3.75"/><rect class="cls-21" x="270.09" y="235.6" width="18.16" height="49.87" rx="3.75" ry="3.75" transform="translate(167.67 -104.68) rotate(30)"/></svg>