<svg id="Layer_1" data-name="Layer 1" xmlns="http://www.w3.org/2000/svg" viewBox="0 0 1155.35 337.76"><defs><style>.cls-1{fill:none;stroke:#231f20;stroke-dasharray:2;}.cls-1,.cls-11,.cls-2,.cls-7{stroke-miterlimit:10;}.cls-11,.cls-2{fill:#b5b5b5;}.cls-2{stroke:#000;stroke-width:5px;}.cls-3{font-size:19.19px;font-family:Helvetica, Helvetica;}.cls-3,.cls-5{fill:#231f20;}.cls-4{letter-spacing:-0.07em;}.cls-6{font-size:19.45px;fill:#fbe800;font-family:Courier, Courier;}.cls-7{fill:#209e4c;stroke:#209e4c;}.cls-8{fill:#1f9e49;}.cls-9{fill:#196d38;}.cls-10{fill:#85ca97;}.cls-11{stroke:#fff;stroke-width:0.5px;}</style></defs><title>urbanmechanic</title><polyline class="cls-1" points="678.51 243.75 932.99 243.75 932.99 178.71"/><rect class="cls-2" x="763.76" y="48.55" width="335.63" height="131.27" rx="12" ry="12"/><text class="cls-3" transform="translate(788.77 88.9)">This bar has powered this <tspan x="0" y="32.67" xml:space="preserve">sign for           hours. Learn</tspan><tspan x="0" y="65.34">more about energy at boston.go</tspan><tspan class="cls-4" x="272.01" y="65.34">v</tspan><tspan x="280.19" y="65.34">. </tspan></text><rect class="cls-5" x="857.27" y="100.08" width="48.57" height="28.38"/><text class="cls-6" transform="translate(863.35 121.09)">015</text><ellipse class="cls-7" cx="670.67" cy="241.74" rx="9.9" ry="28.03"/><polygon class="cls-8" points="66.71 212.71 168.23 212.71 337.2 212.71 670.81 212.71 670.81 270.64 66.71 270.64 66.71 212.71"/><path class="cls-9" d="M538.48,213c27.69-.62-27.65,43.93-61.75,43.93S390.72,213.55,415,213C458.44,212,514.23,213.54,538.48,213Z"/><path class="cls-9" d="M317.39,212.53c27.69-.62-27.65,43.93-61.75,43.93s-86-43.38-61.75-43.93C237.35,211.54,293.13,213.07,317.39,212.53Z"/><ellipse class="cls-10" cx="66.27" cy="241.69" rx="9.9" ry="28.98"/><rect class="cls-11" x="493.7" y="198.97" width="18.16" height="65.47" rx="3.75" ry="3.75" transform="translate(1005.57 463.41) rotate(-180)"/><rect class="cls-11" x="475.53" y="198.17" width="18.16" height="65.47" rx="3.75" ry="3.75" transform="translate(969.23 461.8) rotate(-180)"/><rect class="cls-11" x="457.8" y="198.3" width="18.16" height="65.47" rx="3.75" ry="3.75" transform="translate(933.76 462.06) rotate(180)"/><rect class="cls-11" x="439.55" y="198.23" width="18.16" height="65.47" rx="3.75" ry="3.75" transform="translate(897.26 461.92) rotate(-180)"/><rect class="cls-11" x="405.82" y="230.01" width="18.16" height="49.87" rx="3.75" ry="3.75" transform="translate(901.69 268.29) rotate(150)"/><rect class="cls-11" x="218.83" y="198.97" width="18.16" height="65.47" rx="3.75" ry="3.75"/><rect class="cls-11" x="236.99" y="198.16" width="18.16" height="65.47" rx="3.75" ry="3.75"/><rect class="cls-11" x="254.73" y="198.29" width="18.16" height="65.47" rx="3.75" ry="3.75"/><rect class="cls-11" x="272.98" y="198.22" width="18.16" height="65.47" rx="3.75" ry="3.75"/><rect class="cls-11" x="306.71" y="230.01" width="18.16" height="49.87" rx="3.75" ry="3.75" transform="translate(169.78 -123.74) rotate(30)"/></svg>