<svg id="Layer_1" data-name="Layer 1" xmlns="http://www.w3.org/2000/svg" viewBox="0 0 972.97 347.25"><defs><style>.cls-1{font-size:33.97px;font-family:MyriadPro-Regular, Myriad Pro;}.cls-1,.cls-8{fill:#231f20;}.cls-2{letter-spacing:0em;}.cls-3{letter-spacing:0.01em;}.cls-4{letter-spacing:0em;}.cls-5{letter-spacing:0em;}.cls-6{letter-spacing:-0.01em;}.cls-7,.cls-9{fill:none;stroke:#231f20;}.cls-13,.cls-7,.cls-9{stroke-miterlimit:10;}.cls-7{stroke-width:4px;}.cls-9{stroke-dasharray:2;}.cls-10{fill:#d3d3d3;}.cls-11{fill:#727373;}.cls-12{fill:#939393;}.cls-13{fill:#209e4c;stroke:#209e4c;}.cls-14{fill:#1f9e49;}.cls-15{fill:#196d38;}.cls-16{fill:#85ca97;}</style></defs><title>urbanmechanic</title><text class="cls-1" transform="translate(278.4 156.1)">the<tspan class="cls-2" x="47.12" y="0">r</tspan><tspan x="58.36" y="0">moele</tspan><tspan class="cls-3" x="147.4" y="0">c</tspan><tspan class="cls-4" x="163.07" y="0">t</tspan><tspan class="cls-5" x="174.31" y="0">r</tspan><tspan x="185.55" y="0">ic devi</tspan><tspan class="cls-6" x="276.4" y="0">c</tspan><tspan x="291.41" y="0">e</tspan></text><path class="cls-7" d="M200.2,207.84c-4.81-21.61,1.21-42.71,15.57-54.14,15.22-12.13,33.49-8.36,37.18-7.52"/><polygon class="cls-8" points="206.66 206.49 198.96 205.66 191.25 204.84 195.12 212.48 198.98 220.12 202.82 213.3 206.66 206.49"/><polyline class="cls-9" points="635.6 284.2 890.07 284.2 890.07 219.16"/><ellipse class="cls-10" cx="889.21" cy="126.55" rx="47.01" ry="67.45"/><rect class="cls-11" x="864.64" y="215.19" width="47.5" height="12.52" rx="2.73" ry="2.73"/><rect class="cls-12" x="865.05" y="202.77" width="47.5" height="12.52" rx="2.73" ry="2.73"/><rect class="cls-11" x="865.29" y="190.21" width="47.5" height="12.52" rx="2.73" ry="2.73"/><ellipse class="cls-13" cx="627.65" cy="281.43" rx="9.9" ry="28.03"/><polygon class="cls-14" points="23.69 252.4 125.21 252.4 294.18 252.4 627.79 252.4 627.79 310.33 23.69 310.33 23.69 252.4"/><path class="cls-15" d="M495.46,252.68c27.69-.62-27.65,43.93-61.75,43.93s-86-43.38-61.75-43.93C415.42,251.69,471.2,253.22,495.46,252.68Z"/><path class="cls-15" d="M274.37,252.22c27.69-.62-27.65,43.93-61.75,43.93s-86-43.38-61.75-43.93C194.32,251.22,250.11,252.76,274.37,252.22Z"/><ellipse class="cls-16" cx="23.25" cy="281.38" rx="9.9" ry="28.98"/></svg>