<svg id="Layer_1" data-name="Layer 1" xmlns="http://www.w3.org/2000/svg" viewBox="0 0 1179.47 273.42"><defs><style>.cls-1{fill:#282828;stroke:#000;stroke-width:4px;}.cls-1,.cls-11,.cls-12,.cls-16{stroke-miterlimit:10;}.cls-2,.cls-6{font-size:31.16px;}.cls-2{fill:#e5dc91;font-family:Helvetica-Bold, Helvetica;font-weight:700;}.cls-3{letter-spacing:-0.02em;}.cls-4{letter-spacing:1.68em;}.cls-5{letter-spacing:1.41em;}.cls-6{fill:#fcf9d3;font-family:Helvetica, Helvetica;letter-spacing:0.02em;}.cls-7{letter-spacing:0.04em;}.cls-8{letter-spacing:1.7em;}.cls-9{letter-spacing:0.04em;}.cls-10{letter-spacing:1.31em;}.cls-11{fill:none;stroke:#231f20;stroke-dasharray:2;}.cls-12{fill:#209e4c;stroke:#209e4c;}.cls-13{fill:#1f9e49;}.cls-14{fill:#196d38;}.cls-15{fill:#85ca97;}.cls-16{fill:#b5b5b5;stroke:#fff;stroke-width:0.5px;}</style></defs><title>urbanmechanic</title><rect class="cls-1" x="702.62" y="16.61" width="446.36" height="87.3"/><text class="cls-2" transform="translate(715.31 52.79)"><tspan class="cls-3">W</tspan><tspan x="28.87" y="0">onderland</tspan><tspan class="cls-4" x="179.49" y="0">	</tspan><tspan x="240.43" y="0">BRD</tspan><tspan class="cls-5" x="307.94" y="0">	</tspan><tspan x="360.64" y="0">5:51</tspan><tspan class="cls-3" x="0" y="37.4">W</tspan><tspan x="28.87" y="37.4">onderland</tspan><tspan class="cls-4" x="179.49" y="37.4">	</tspan><tspan x="240.43" y="37.4">6 min</tspan></text><text class="cls-6" transform="translate(715.31 52.79)">W<tspan class="cls-7" x="30.11" y="0">onderland</tspan><tspan class="cls-8" x="179.95" y="0">	</tspan><tspan class="cls-9" x="241.68" y="0">BRD</tspan><tspan class="cls-10" x="311.21" y="0">	</tspan><tspan class="cls-9" x="360.65" y="0">5:51</tspan><tspan x="0" y="37.4">W</tspan><tspan class="cls-7" x="30.11" y="37.4">onderland</tspan><tspan class="cls-8" x="179.95" y="37.4">	</tspan><tspan class="cls-9" x="241.68" y="37.4">6 min</tspan></text><polyline class="cls-11" points="662.01 167.63 916.49 167.63 916.49 102.59"/><ellipse class="cls-12" cx="650.88" cy="168.9" rx="9.9" ry="28.03"/><polygon class="cls-13" points="46.92 139.87 148.44 139.87 317.41 139.87 651.02 139.87 651.02 197.8 46.92 197.8 46.92 139.87"/><path class="cls-14" d="M518.69,140.16c27.69-.62-27.65,43.93-61.75,43.93s-86-43.38-61.75-43.93C438.65,139.16,494.43,140.7,518.69,140.16Z"/><path class="cls-14" d="M297.6,139.69c27.69-.62-27.65,43.93-61.75,43.93s-86-43.38-61.75-43.93C217.55,138.7,273.34,140.23,297.6,139.69Z"/><ellipse class="cls-15" cx="46.48" cy="168.85" rx="9.9" ry="28.98"/><rect class="cls-16" x="473.91" y="126.14" width="18.16" height="65.47" rx="3.75" ry="3.75" transform="translate(965.98 317.74) rotate(-180)"/><rect class="cls-16" x="455.74" y="125.33" width="18.16" height="65.47" rx="3.75" ry="3.75" transform="translate(929.65 316.12) rotate(-180)"/><rect class="cls-16" x="438.01" y="125.46" width="18.16" height="65.47" rx="3.75" ry="3.75" transform="translate(894.18 316.38) rotate(180)"/><rect class="cls-16" x="419.75" y="125.39" width="18.16" height="65.47" rx="3.75" ry="3.75" transform="translate(857.67 316.25) rotate(-180)"/><rect class="cls-16" x="386.02" y="157.17" width="18.16" height="49.87" rx="3.75" ry="3.75" transform="translate(828.33 142.27) rotate(150)"/><rect class="cls-16" x="199.03" y="126.13" width="18.16" height="65.47" rx="3.75" ry="3.75"/><rect class="cls-16" x="217.2" y="125.32" width="18.16" height="65.47" rx="3.75" ry="3.75"/><rect class="cls-16" x="234.94" y="125.45" width="18.16" height="65.47" rx="3.75" ry="3.75"/><rect class="cls-16" x="253.19" y="125.39" width="18.16" height="65.47" rx="3.75" ry="3.75"/><rect class="cls-16" x="286.92" y="157.17" width="18.16" height="49.87" rx="3.75" ry="3.75" transform="translate(130.71 -123.6) rotate(30)"/></svg>