<svg id="Layer_1" data-name="Layer 1" xmlns="http://www.w3.org/2000/svg" viewBox="0 0 1155.35 337.76"><defs><style>.cls-1{fill:none;stroke:#231f20;stroke-dasharray:2;}.cls-1,.cls-2,.cls-6{stroke-miterlimit:10;}.cls-2{fill:#b5b5b5;stroke:#fff;stroke-width:0.5px;}.cls-3{font-size:23.19px;font-family:Helvetica, Helvetica;}.cls-3,.cls-4{fill:#231f20;}.cls-5{font-size:33.13px;fill:#fbe800;font-family:Courier, Courier;}.cls-6{fill:#209e4c;stroke:#209e4c;}.cls-7{fill:#1f9e49;}.cls-8{fill:#196d38;}.cls-9{fill:#85ca97;}</style></defs><title>urbanmechanic</title><polyline class="cls-1" points="678.51 243.75 932.99 243.75 932.99 178.71"/><rect class="cls-2" x="758.23" y="21.23" width="343.07" height="177.15" rx="12" ry="12"/><text class="cls-3" transform="translate(790.24 62.09)">This sign has generated<tspan x="0" y="52.67" xml:space="preserve">              watts of energy</tspan><tspan x="0" y="105.34" xml:space="preserve">that is                light bulbs.</tspan></text><rect class="cls-4" x="784.74" y="82.26" width="82.72" height="48.33"/><text class="cls-5" transform="translate(795.09 118.05)">500</text><rect class="cls-4" x="863.32" y="134.6" width="82.72" height="48.33"/><text class="cls-5" transform="translate(873.68 170.39)">005</text><ellipse class="cls-6" cx="670.67" cy="241.74" rx="9.9" ry="28.03"/><polygon class="cls-7" points="66.71 212.71 168.23 212.71 337.2 212.71 670.81 212.71 670.81 270.64 66.71 270.64 66.71 212.71"/><path class="cls-8" d="M538.48,213c27.69-.62-27.65,43.93-61.75,43.93S390.72,213.55,415,213C458.44,212,514.23,213.54,538.48,213Z"/><path class="cls-8" d="M317.39,212.53c27.69-.62-27.65,43.93-61.75,43.93s-86-43.38-61.75-43.93C237.35,211.54,293.13,213.07,317.39,212.53Z"/><ellipse class="cls-9" cx="66.27" cy="241.69" rx="9.9" ry="28.98"/><rect class="cls-2" x="493.7" y="198.97" width="18.16" height="65.47" rx="3.75" ry="3.75" transform="translate(1005.57 463.41) rotate(-180)"/><rect class="cls-2" x="475.53" y="198.17" width="18.16" height="65.47" rx="3.75" ry="3.75" transform="translate(969.23 461.8) rotate(-180)"/><rect class="cls-2" x="457.8" y="198.3" width="18.16" height="65.47" rx="3.75" ry="3.75" transform="translate(933.76 462.06) rotate(180)"/><rect class="cls-2" x="439.55" y="198.23" width="18.16" height="65.47" rx="3.75" ry="3.75" transform="translate(897.26 461.92) rotate(-180)"/><rect class="cls-2" x="405.82" y="230.01" width="18.16" height="49.87" rx="3.75" ry="3.75" transform="translate(901.69 268.29) rotate(150)"/><rect class="cls-2" x="218.83" y="198.97" width="18.16" height="65.47" rx="3.75" ry="3.75"/><rect class="cls-2" x="236.99" y="198.16" width="18.16" height="65.47" rx="3.75" ry="3.75"/><rect class="cls-2" x="254.73" y="198.29" width="18.16" height="65.47" rx="3.75" ry="3.75"/><rect class="cls-2" x="272.98" y="198.22" width="18.16" height="65.47" rx="3.75" ry="3.75"/><rect class="cls-2" x="306.71" y="230.01" width="18.16" height="49.87" rx="3.75" ry="3.75" transform="translate(169.78 -123.74) rotate(30)"/></svg>